<svg xmlns="http://www.w3.org/2000/svg" xmlns:xlink="http://www.w3.org/1999/xlink" version="1.1" id="Capa_1" x="0px" y="0px" viewBox="0 0 512 512" style="enable-background:new 0 0 512 512;" xml:space="preserve" width="512" height="512">
<g>
	<g>
		<path style="fill:#FFF8E6;" d="M425.162,299.827c0,72.861-46.07,134.962-110.662,158.772&#10;&#9;&#9;&#9;c-142.751-66.326-147.26-259.214-53.861-328.555c28.89-3.34,55.221,3.66,77.821,22.06&#10;&#9;&#9;&#9;C390.192,181.046,425.162,236.346,425.162,299.827z"/>
		<path style="fill:#FFEAB7;" d="M314.501,458.6c-18.23,6.72-37.94,10.39-58.501,10.39c-93.421,0-169.162-75.741-169.162-169.163&#10;&#9;&#9;&#9;c0-93.431,75.741-169.163,169.162-169.163c1.55-0.24,3.1-0.44,4.64-0.62C197.289,221.936,205.429,371.629,314.501,458.6z"/>
		<path style="fill:#FF6E80;" d="M338.461,152.105c-15.56-8.71-30.83-13.41-50.741-18.45c-11.62,6.79-16.65,26.52-18.83,42.611&#10;&#9;&#9;&#9;c-0.12,0.9-0.28,1.78-0.49,2.64c-67.731-34.168-60.153-148.131-13.97-171.342c25.611,1.27,46.361,20.98,49.301,46.131&#10;&#9;&#9;&#9;c6.2-1.66,12.83-2.24,19.71-1.44c24.45,2.83,43.851,22.73,46.011,47.251C371.502,122.875,358.171,143.385,338.461,152.105z"/>
		<path style="fill:#FD5C6F;" d="M268.4,178.906c-2.84,11.88-13.47,20.48-25.92,20.48c-11.07,0.04-20.45-6.74-24.52-16.24&#10;&#9;&#9;&#9;c-2.7-6.29-8.94-10.41-15.78-10.64c-25.81-0.85-49.561-22.15-50.741-49.031c-1.84-29.21,20.3-53.651,48.621-55.581&#10;&#9;&#9;&#9;c-0.75-4.83-0.84-9.87-0.16-15.04c3.15-24.02,22.82-42.931,46.951-45.131c2.56-0.23,5.09-0.28,7.58-0.16&#10;&#9;&#9;&#9;C222.219,54.854,222.849,128.455,268.4,178.906z"/>
		<path style="fill:#FD5C6F;" d="M321.691,497.02c-43.562-24.835-53.837-85.121-25.72-119.492&#10;&#9;&#9;&#9;c18.74,15.47,37.331,47.541,42.331,66.111C344.011,464.84,336.761,486.1,321.691,497.02z"/>
		<path style="fill:#F9475E;" d="M321.691,497.02c-3.8,2.76-8.11,4.86-12.83,6.13c-23.42,6.31-48.201-10.11-55.351-36.66&#10;&#9;&#9;&#9;c-7.16-26.56-4.16-90.991,19.25-97.302c7.05-1.9,15.15,1.68,23.21,8.34C280.56,414.789,286.841,464.01,321.691,497.02z"/>
		<path style="fill:#FF6E80;" d="M258.23,467.6c-2.97,9.84-8.37,18.2-15.17,24.43c-45.408-31.588-45.408-85.897-19.04-118.452&#10;&#9;&#9;&#9;c6.33-3.81,12.47-5.44,17.89-3.81C265.12,376.779,266.18,441.27,258.23,467.6z"/>
		<path style="fill:#FD5C6F;" d="M243.06,492.03c-11.39,10.44-26.73,14.94-41.261,10.55c-23.22-7.01-35.591-34.04-27.641-60.371&#10;&#9;&#9;&#9;c6.1-20.19,29.03-56.131,49.861-68.631C207.289,409.459,211.439,457.95,243.06,492.03z"/>
		<path style="fill:#FAD989;" d="M273.91,411.899c-54.2-32.773-50.09-106.164-15.11-126.632c24.45,0.9,48.381,13.52,58.471,37.861&#10;&#9;&#9;&#9;C328.161,349.408,295.651,389.249,273.91,411.899z"/>
		<path style="fill:#FDC072;" d="M273.91,411.899c-1.03,1.07-2.03,2.09-3,3.08c-8.2,8.34-21.62,8.34-29.82,0&#10;&#9;&#9;&#9;c-21.58-21.95-57.761-64.331-46.361-91.851c10.86-26.2,37.761-38.821,64.071-37.861C235.76,320.928,237.69,375.859,273.91,411.899&#10;&#9;&#9;&#9;z"/>
	</g>
	<g id="_x33_4_Chicken">
		<path style="fill:none;stroke:#000000;stroke-width:15;stroke-linecap:round;stroke-linejoin:round;stroke-miterlimit:10;" d="&#10;&#9;&#9;&#9;M255.982,473.712c9.338,22.224,31.668,35.153,52.877,29.438c23.415-6.309,36.595-32.953,29.44-59.511&#10;&#9;&#9;&#9;c-4.653-17.269-21.063-46.218-38.41-62.626"/>
		<path style="fill:none;stroke:#000000;stroke-width:15;stroke-linecap:round;stroke-linejoin:round;stroke-miterlimit:10;" d="&#10;&#9;&#9;&#9;M241.091,414.977c8.2,8.339,21.618,8.339,29.818,0c21.582-21.948,57.765-64.329,46.358-91.845&#10;&#9;&#9;&#9;c-20.952-50.539-101.582-50.539-122.533,0C183.326,350.649,219.51,393.029,241.091,414.977z"/>
		
			<line style="fill:none;stroke:#000000;stroke-width:15;stroke-linecap:round;stroke-linejoin:round;stroke-miterlimit:10;" x1="193.551" y1="248.928" x2="193.551" y2="260.928"/>
		
			<line style="fill:none;stroke:#000000;stroke-width:15;stroke-linecap:round;stroke-linejoin:round;stroke-miterlimit:10;" x1="318.449" y1="248.928" x2="318.449" y2="260.928"/>
		<path style="fill:none;stroke:#000000;stroke-width:15;stroke-linecap:round;stroke-linejoin:round;stroke-miterlimit:10;" d="&#10;&#9;&#9;&#9;M151.943,112.158c-0.558,3.664-0.748,7.45-0.504,11.323c1.18,26.876,24.932,48.178,50.738,49.03&#10;&#9;&#9;&#9;c6.84,0.226,13.08,4.349,15.778,10.638c4.074,9.499,13.453,16.28,24.523,16.24c13.359,0,24.626-9.887,26.416-23.125&#10;&#9;&#9;&#9;c2.175-16.084,7.204-35.811,18.823-42.605c19.914,5.036,35.183,9.743,50.746,18.45c19.71-8.718,33.035-29.235,30.982-52.603&#10;&#9;&#9;&#9;c-2.153-24.517-21.557-44.419-46.006-47.248c-6.879-0.796-13.515-0.223-19.705,1.437c-3.225-27.584-27.885-48.62-56.886-45.971&#10;&#9;&#9;&#9;c-24.127,2.204-43.799,21.113-46.953,45.135c-0.679,5.173-0.585,10.214,0.162,15.041c-12.102,0.825-23.066,5.771-31.521,13.433"/>
		<path style="fill:none;stroke:#000000;stroke-width:15;stroke-linecap:round;stroke-linejoin:round;stroke-miterlimit:10;" d="&#10;&#9;&#9;&#9;M166.237,156.437c-47.686,29.915-79.397,82.946-79.397,143.392c0,63.22,34.686,118.33,86.06,147.363"/>
		<path style="fill:none;stroke:#000000;stroke-width:15;stroke-linecap:round;stroke-linejoin:round;stroke-miterlimit:10;" d="&#10;&#9;&#9;&#9;M396.351,394.236c18.18-26.963,28.809-59.438,28.809-94.408c0-63.481-34.974-118.784-86.698-147.72"/>
		<path style="fill:none;stroke:#000000;stroke-width:15;stroke-linecap:round;stroke-linejoin:round;stroke-miterlimit:10;" d="&#10;&#9;&#9;&#9;M339.117,447.169c12.705-7.181,24.385-15.962,34.776-26.062"/>
		<path style="fill:none;stroke:#000000;stroke-width:15;stroke-linecap:round;stroke-linejoin:round;stroke-miterlimit:10;" d="&#10;&#9;&#9;&#9;M212.925,382.147c-17.287,16.102-33.737,43.425-38.761,60.06c-7.952,26.33,4.42,53.359,27.635,60.37&#10;&#9;&#9;&#9;c23.214,7.011,48.48-8.65,56.432-34.981c3.411-11.295,5.161-29.61,4.219-47.399"/>
	</g>
</g>















</svg>
