<?xml version="1.0" standalone="no"?>
<!DOCTYPE svg PUBLIC "-//W3C//DTD SVG 20010904//EN"
 "http://www.w3.org/TR/2001/REC-SVG-20010904/DTD/svg10.dtd">
<svg version="1.0" xmlns="http://www.w3.org/2000/svg"
 width="700.000000pt" height="700.000000pt" viewBox="0 0 700.000000 700.000000"
 preserveAspectRatio="xMidYMid meet">
<metadata>
Created by potrace 1.14, written by Peter Selinger 2001-2017
</metadata>
<g transform="translate(0.000000,700.000000) scale(0.100000,-0.100000)"
fill="#000000" stroke="none">
<path d="M3335 6995 c-5 -2 -44 -11 -85 -20 -232 -53 -433 -215 -541 -435 -21
-43 -43 -97 -49 -119 -5 -23 -15 -60 -21 -83 -5 -23 -11 -73 -12 -110 -1 -67
-2 -67 -32 -74 -103 -22 -283 -116 -357 -188 -35 -33 -43 -75 -24 -120 15 -35
14 -36 -26 -97 -23 -34 -51 -87 -64 -118 -19 -45 -28 -57 -51 -62 -63 -13 -87
-37 -98 -100 -8 -42 -8 -202 0 -237 3 -15 7 -36 9 -48 8 -41 30 -109 38 -118
4 -6 8 -16 8 -23 0 -7 20 -46 44 -86 l43 -74 -91 -69 c-91 -69 -307 -276 -385
-369 -72 -86 -187 -255 -250 -369 -234 -423 -335 -884 -298 -1369 28 -367 149
-739 344 -1062 120 -198 341 -455 513 -596 64 -53 221 -167 267 -194 l31 -18
0 -96 c-3 -347 196 -628 507 -717 80 -23 230 -23 315 -1 143 38 277 121 379
234 l52 58 25 -33 c107 -136 305 -256 449 -272 61 -7 196 -5 237 3 124 23 267
109 358 213 70 80 146 231 163 324 4 19 9 46 12 60 3 14 6 70 7 126 l0 101 57
35 c192 123 400 304 402 351 2 36 -2 61 -12 72 -16 16 -10 28 37 80 25 28 62
71 81 97 36 46 37 47 80 41 28 -4 53 -1 68 7 65 35 257 398 327 618 27 85 25
77 43 147 22 87 22 86 60 305 8 45 18 213 18 310 1 97 -11 299 -17 309 -2 3
-7 29 -10 56 -6 53 -14 101 -21 125 -3 8 -7 31 -10 51 -3 20 -21 87 -40 149
-89 289 -211 528 -395 775 -128 171 -376 407 -552 525 -36 24 -48 40 -30 40
15 0 124 114 168 176 91 127 143 283 148 439 2 82 -1 117 -19 214 -11 65 -67
193 -115 264 -157 234 -412 370 -691 368 l-96 0 -13 42 c-41 138 -157 304
-275 392 -22 17 -42 32 -45 35 -34 35 -194 102 -301 126 -27 6 -248 14 -264 9z"/>
</g>
</svg>
